<?xml version="1.0" standalone="no"?>
<!DOCTYPE svg PUBLIC "-//W3C//DTD SVG 20010904//EN"
 "http://www.w3.org/TR/2001/REC-SVG-20010904/DTD/svg10.dtd">
<svg version="1.0" xmlns="http://www.w3.org/2000/svg"
 width="24.000000pt" height="24.000000pt" viewBox="0 0 24.000000 24.000000"
 preserveAspectRatio="xMidYMid meet">

<g transform="translate(0.000000,24.000000) scale(0.100000,-0.100000)"
fill="#000000" stroke="none">
<path d="M185 231 c-3 -7 3 -11 14 -11 30 0 26 -20 -19 -110 -36 -71 -38 -80
-24 -94 8 -9 25 -16 37 -15 l22 0 -22 11 c-31 15 -29 36 14 118 29 56 35 75
27 88 -13 20 -40 27 -49 13z"/>
<path d="M38 203 c-35 -41 -52 -165 -26 -191 23 -23 57 -14 74 19 18 36 30
126 20 163 -8 31 -45 36 -68 9z m54 -34 c12 -77 -28 -170 -62 -149 -31 19 -14
125 28 172 19 22 29 16 34 -23z"/>
</g>
</svg>
