<svg width="106" height="100" viewBox="0 0 106 100" fill="none" xmlns="http://www.w3.org/2000/svg">
<path d="M0.399994 99.8799C30.79 84.2799 45.99 63.0892 45.99 36.6992C45.99 15.8992 35.59 0.699219 21.19 0.699219C9.6 0.699219 2 8.29984 2 19.0898C2 29.4898 8.80001 36.6895 18.79 36.6895C22.79 36.6895 25.59 35.8895 29.59 32.6895C31.59 31.0895 34.39 27.8896 37.19 27.8896C41.99 27.8896 44.39 31.4893 44.39 39.4893C44.39 69.8793 15.99 91.0699 0 98.6699L0.399994 99.8799ZM59.98 99.8799C89.98 84.2799 105.17 63.0892 105.17 36.6992C105.17 15.8992 94.77 0.699219 80.38 0.699219C69.18 0.699219 61.58 8.29984 61.58 19.0898C61.58 29.4898 68.38 36.6895 77.98 36.6895C81.98 36.6895 84.77 35.8895 88.77 32.6895C90.77 31.0895 93.97 27.8896 96.37 27.8896C101.17 27.8896 103.57 31.4893 103.57 39.4893C103.57 69.8793 75.57 91.0699 59.57 98.6699L59.98 99.8799Z" fill="black"/>
</svg>
