<svg width="106" height="100" viewBox="0 0 106 100" fill="none" xmlns="http://www.w3.org/2000/svg">
<path d="M104.77 0.699219C74.38 16.2892 59.18 37.4889 59.18 63.8789C59.18 84.6689 69.58 99.8789 83.97 99.8789C95.57 99.8789 103.17 92.2795 103.17 81.4795C103.17 71.0895 96.37 63.8896 86.37 63.8896C82.37 63.8896 79.58 64.6896 75.58 67.8896C73.58 69.4896 70.78 72.6895 67.98 72.6895C63.18 72.6895 60.78 69.0889 60.78 61.0889C60.78 30.6989 89.17 9.50918 105.17 1.90918L104.77 0.699219ZM45.19 0.699219C15.19 16.2892 0 37.4889 0 63.8789C0 84.6689 10.4 99.8789 24.79 99.8789C35.99 99.8789 43.59 92.2795 43.59 81.4795C43.59 71.0895 36.79 63.8896 27.19 63.8896C23.19 63.8896 20.39 64.6896 16.4 67.8896C14.4 69.4896 11.2 72.6895 8.80002 72.6895C4.00002 72.6895 1.60001 69.0889 1.60001 61.0889C1.60001 30.6989 29.6 9.50918 45.6 1.90918L45.19 0.699219Z" fill="black"/>
</svg>
